# xmcd
#
# Track frame offsets: 
#        150
#        20892
#        40020
#        58472
#        88762
#        132235
#        154285
#        177020
#        200680
#
# Disc length: 2911 seconds
#
# Revision: 3
# Processed by: cddbd v1.5.2PL0 Copyright (c) Steve Scherf et al.
# Submitted via: ExactAudioCopy v0.99pb5
#
DISCID=800b5d09
DTITLE=Chris Duarte Group - Texas Sugar Strat Magic
DYEAR=1994
DGENRE=Blues
TTITLE0=My way down
TTITLE1=Letter to my girlfriend
TTITLE2=C-Butt rock
TTITLE3=Just kissed my baby
TTITLE4=Shiloh
TTITLE5=Scrawl
TTITLE6=What can I do?
TTITLE7=Big-legged woman
TTITLE8=Borrowed love
EXTD=
EXTT0=
EXTT1=
EXTT2=
EXTT3=
EXTT4=
EXTT5=
EXTT6=
EXTT7=
EXTT8=
PLAYORDER=
